<?xml version="1.0" encoding="UTF-8" standalone="no"?>
<!-- Uploaded to: SVG Repo, www.svgrepo.com, Generator: SVG Repo Mixer Tools -->

<svg
   height="479.46265"
   width="560"
   version="1.1"
   id="Layer_1"
   viewBox="0 0 274.8641 235.33405"
   xml:space="preserve"
   sodipodi:docname="CronoPayLogo.svg"
   inkscape:version="1.4.2 (ebf0e94, 2025-05-08)"
   inkscape:export-filename="time-is-money-svgrepo-com (4).png"
   inkscape:export-xdpi="154.28575"
   inkscape:export-ydpi="154.28575"
   xmlns:inkscape="http://www.inkscape.org/namespaces/inkscape"
   xmlns:sodipodi="http://sodipodi.sourceforge.net/DTD/sodipodi-0.dtd"
   xmlns:xlink="http://www.w3.org/1999/xlink"
   xmlns="http://www.w3.org/2000/svg"
   xmlns:svg="http://www.w3.org/2000/svg"><defs
   id="defs6"><linearGradient
     id="linearGradient35"
     inkscape:collect="always"><stop
       style="stop-color:#bfbfbf;stop-opacity:1;"
       offset="0"
       id="stop33" /><stop
       style="stop-color:#ffffff;stop-opacity:1;"
       offset="0.5"
       id="stop34" /></linearGradient><linearGradient
     id="linearGradient55"><stop
       style="stop-color:#7db4e8;stop-opacity:1;"
       offset="0"
       id="stop23" /><stop
       style="stop-color:#2683d9;stop-opacity:1;"
       offset="0.5"
       id="stop24" /><stop
       style="stop-color:#174f82;stop-opacity:1;"
       offset="1"
       id="stop25" /></linearGradient><linearGradient
     id="linearGradient9"
     gradientUnits="userSpaceOnUse"
     x1="-28.743799"
     y1="552.58502"
     x2="-28.743799"
     y2="575.03497"
     gradientTransform="matrix(7.8769,0,0,-7.8769,364.0537,4969.6694)">
		<stop
   offset="0"
   style="stop-color:#29d4da;stop-opacity:1;"
   id="stop5" />
		<stop
   offset="0.519"
   style="stop-color:#0077FF"
   id="stop6" />
		<stop
   offset="0.999"
   style="stop-color:#064093"
   id="stop7" />
		<stop
   offset="1"
   style="stop-color:#084698;stop-opacity:1;"
   id="stop8" />
	</linearGradient><linearGradient
     id="linearGradient55-1"><stop
       style="stop-color:#29d4da;stop-opacity:1;"
       offset="0"
       id="stop54" /><stop
       style="stop-color:#0077ff;stop-opacity:1;"
       offset="0.5"
       id="stop56" /><stop
       style="stop-color:#084698;stop-opacity:1;"
       offset="1"
       id="stop55" /></linearGradient><linearGradient
     id="linearGradient47"
     inkscape:collect="always"><stop
       style="stop-color:#71db98;stop-opacity:1;"
       offset="0"
       id="stop47" /><stop
       style="stop-color:#2eb860;stop-opacity:1;"
       offset="0.5"
       id="stop58" /><stop
       style="stop-color:#196635;stop-opacity:1;"
       offset="1"
       id="stop48" /></linearGradient><linearGradient
     id="linearGradient45"
     inkscape:collect="always"><stop
       style="stop-color:#ffd966;stop-opacity:1;"
       offset="0"
       id="stop45" /><stop
       style="stop-color:#ffbf00;stop-opacity:1;"
       offset="0.5"
       id="stop57" /><stop
       style="stop-color:#997300;stop-opacity:1;"
       offset="1"
       id="stop46" /></linearGradient><linearGradient
     inkscape:collect="always"
     xlink:href="#linearGradient55-1"
     id="linearGradient51"
     x1="194.34438"
     y1="56.880356"
     x2="194.34438"
     y2="331.74438"
     gradientUnits="userSpaceOnUse" /><linearGradient
     inkscape:collect="always"
     xlink:href="#linearGradient55-1"
     id="linearGradient54"
     x1="196.33156"
     y1="56.727547"
     x2="196.33156"
     y2="322.21918"
     gradientUnits="userSpaceOnUse" /><linearGradient
     inkscape:collect="always"
     xlink:href="#linearGradient45"
     id="linearGradient8"
     x1="106.5115"
     y1="389.00998"
     x2="106.5115"
     y2="215.371"
     gradientUnits="userSpaceOnUse" /><linearGradient
     inkscape:collect="always"
     xlink:href="#linearGradient47"
     id="linearGradient10"
     x1="106.5115"
     y1="165.246"
     x2="106.5115"
     y2="338.88501"
     gradientUnits="userSpaceOnUse" /><linearGradient
     inkscape:collect="always"
     xlink:href="#linearGradient47"
     id="linearGradient20"
     x1="397.58801"
     y1="165.21051"
     x2="397.58801"
     y2="338.89648"
     gradientUnits="userSpaceOnUse" /><linearGradient
     inkscape:collect="always"
     xlink:href="#linearGradient45"
     id="linearGradient22"
     x1="397.58801"
     y1="389.03351"
     x2="397.58801"
     y2="215.34747"
     gradientUnits="userSpaceOnUse" /><linearGradient
     inkscape:collect="always"
     xlink:href="#linearGradient55"
     id="linearGradient24"
     x1="50.813999"
     y1="100.273"
     x2="224.492"
     y2="100.273"
     gradientUnits="userSpaceOnUse" /><linearGradient
     inkscape:collect="always"
     xlink:href="#linearGradient55"
     id="linearGradient26"
     x1="453.285"
     y1="100.26151"
     x2="279.63101"
     y2="100.26151"
     gradientUnits="userSpaceOnUse" /><linearGradient
     inkscape:collect="always"
     xlink:href="#linearGradient47"
     id="linearGradient27"
     x1="17.221001"
     y1="362.65536"
     x2="300.16776"
     y2="362.65536"
     gradientUnits="userSpaceOnUse" /><linearGradient
     inkscape:collect="always"
     xlink:href="#linearGradient47"
     id="linearGradient28"
     x1="203.95825"
     y1="141.47214"
     x2="486.90601"
     y2="141.47214"
     gradientUnits="userSpaceOnUse" /><linearGradient
     inkscape:collect="always"
     xlink:href="#linearGradient45"
     id="linearGradient30"
     x1="333.306"
     y1="162.42825"
     x2="485.48849"
     y2="162.42825"
     gradientUnits="userSpaceOnUse" /><linearGradient
     inkscape:collect="always"
     xlink:href="#linearGradient45"
     id="linearGradient31"
     x1="18.636499"
     y1="341.69125"
     x2="170.821"
     y2="341.69125"
     gradientUnits="userSpaceOnUse" /><linearGradient
     inkscape:collect="always"
     xlink:href="#linearGradient35"
     id="linearGradient33"
     x1="201.11618"
     y1="316.69385"
     x2="201.11618"
     y2="85.601952"
     gradientUnits="userSpaceOnUse" /><linearGradient
     inkscape:collect="always"
     xlink:href="#SVGID_5_"
     id="linearGradient37"
     x1="231.6356"
     y1="208.01488"
     x2="198.61736"
     y2="289.79849"
     gradientUnits="userSpaceOnUse"
     gradientTransform="translate(-224.97041,3.2955992)" /><clipPath
     clipPathUnits="userSpaceOnUse"
     id="clipPath56"><path
       id="path57"
       style="fill:#ff0000;fill-opacity:1;fill-rule:nonzero;stroke:none;stroke-width:0.490829"
       d="M 56.728263,-2.0801443e-4 V 134.75912 c 1.561763,-2.60802 3.184693,-5.17983 4.882406,-7.70179 3.080127,-4.89076 6.040831,-9.85754 9.248092,-14.66734 1.539764,-2.25982 2.181685,-3.26313 3.859524,-5.46718 2.996598,-3.9364 6.346641,-7.59003 9.540484,-11.362878 3.335382,-3.830241 6.652835,-7.675556 9.962292,-11.527766 -0.0052,-0.0029 -0.01021,-0.0057 -0.01531,-0.0086 -4.192458,-2.390282 -6.627533,-7.01648 -9.941201,-10.525017 -0.0044,-2.247613 -0.259158,-4.509106 -0.01247,-6.743143 0.22768,-2.061648 1.675498,-5.279668 2.551926,-7.227262 1.885558,-4.190072 3.96572,-8.296434 6.380774,-12.209365 2.599699,-3.861212 3.821769,-6.00957 7.09401,-9.446535 2.34274,-2.460682 4.96547,-4.556525 7.76506,-6.393236 0.0338,-0.773245 0.0811,-1.546157 0.14092,-2.318975 0.38549,-3.675169 1.23232,-7.088207 3.17122,-10.282478 2.12251,-3.577032 4.46377,-7.054979 7.59155,-9.8434173 1.61653,-0.923134 3.10507,-2.1204965 4.84981,-2.7695394 2.20385,-0.8198362 4.449,-0.8901302 6.68275,-0.6432542 0.43091,-0.6383527 0.88487,-1.2605208 1.36991,-1.8616977 0.61355,-0.7604724 1.3012,-1.4586203 1.95181,-2.1876394 0.70786,-0.5533417 1.35037,-1.08309855 1.9729,-1.572185831 z m 95.887997,0 C 153.41842,0.61262848 154.15001,1.3179715 154.8039,2.111698 c 1.29367,-0.1435237 2.59287,-0.240378 3.89883,-0.2540422 2.87934,-0.00201 5.76889,0.06758 8.60867,0.5943627 1.95529,0.3588346 3.88977,0.8033959 5.80175,1.3497791 1.14896,0.278374 2.30227,0.5797757 3.4128,0.9318079 1.44276,0.1958569 2.87246,0.4681471 4.31392,0.6595511 2.15793,0.2399908 4.34682,0.2135528 6.49581,0.5636859 1.95037,0.2621541 3.88837,0.6106563 5.84777,0.7985553 3.30167,0.1387902 6.61197,-0.016713 9.91531,0.060395 4.58558,0.01953 9.17181,0.040572 13.75663,0.1322936 4.26687,0.097646 8.53809,0.2060062 12.78935,0.6077839 2.72219,0.2967742 5.45122,0.5982849 8.12743,1.1954365 1.62984,0.3577572 3.26712,0.5611448 4.93609,0.6499647 2.02402,0.2160221 4.03812,0.5667035 6.07784,0.5656036 1.18084,0.037814 2.36148,0.079658 3.54221,0.1294179 0.22107,-0.5235941 0.44662,-1.0643539 0.67585,-1.622036 0.11752,-0.285918 2.27501,-0.3840175 3.73106,-0.4285165 0.11396,-0.2595518 0.26489,-0.5100982 0.36429,-0.7745892 0.60148,-1.6003589 1.13376,-3.2354905 1.71311,-4.8450161 0.31138,-0.7901204 0.58828,-1.60865885 0.8762,-2.42634321443 z m 136.26154,0 c 0.003,0.007990694 0.007,0.0159764744 0.01,0.0239671644 1.62531,4.24498985 1.88407,8.79682715 2.0055,13.28305285 -0.0207,4.264035 -0.53831,8.511324 -1.2357,12.712656 -0.7182,2.964534 -1.45361,5.916071 -1.97098,8.924072 -0.59853,3.255432 -1.27659,6.001226 -2.4829,8.185913 3.06897,1.67002 5.87347,3.840333 8.02964,6.606054 1.12977,1.449099 1.93391,3.125362 2.90089,4.687798 0.53175,2.219866 1.49962,4.379076 1.59518,6.659741 0.2207,5.261969 -1.92949,9.739686 -5.53908,13.106659 0.17726,0.131444 0.35283,0.263722 0.52822,0.397841 1.88706,1.50277 3.72242,3.067444 5.59756,4.584267 3.05782,2.525937 6.07459,5.091062 8.8493,7.933785 3.38208,3.448764 6.63626,7.030813 9.52418,10.909435 2.94983,3.948467 5.6562,8.065817 8.15237,12.316737 2.04928,3.60043 3.95623,7.28171 5.64453,11.06665 0.75679,1.77285 1.4265,3.6041 2.40812,5.26395 1.02861,1.7586 2.02625,3.53327 3.04084,5.29941 V -2.0801443e-4 Z M 283.99443,7.5913405 l -9.8e-4,9.817e-4 h -9.8e-4 l -9.9e-4,9.816e-4 c -0.003,0.0027 -0.007,0.00784 -0.0106,0.015338 -0.082,0.1719589 -0.21062,0.4968046 -0.35566,0.8809994 0.10687,-0.1923347 0.21627,-0.381588 0.33266,-0.5617688 0.0469,-0.072613 0.0631,-0.3011607 0.0431,-0.3326513 L 284,7.5942395 v -9.817e-4 h -9.8e-4 v -9.817e-4 h -9.8e-4 l -9.8e-4,-9.816e-4 h -9.8e-4 -9.9e-4 z m -25.05719,0.1217486 c -0.15223,0.0059 -0.30459,0.032095 -0.44865,0.078609 -0.19471,0.062867 -0.36033,0.1206354 -0.50808,0.1773502 0.0396,-0.00644 0.0783,-0.011966 0.11791,-0.018215 0.28903,-0.045632 0.58297,-0.067189 0.86758,-0.1351698 0.0412,-0.00983 0.12835,-0.066901 0.13517,-0.091072 v -9.817e-4 h 9.8e-4 v -9.816e-4 -9.817e-4 l -9.8e-4,-9.816e-4 v -9.817e-4 -9.817e-4 l -9.8e-4,-9.816e-4 -9.8e-4,-9.817e-4 -9.8e-4,-9.816e-4 -9.9e-4,-9.817e-4 h -9.8e-4 c -0.002,-4.79e-4 -0.005,-8.344e-4 -0.008,-9.816e-4 -0.0504,-0.00255 -0.10073,-0.0029 -0.15147,-9.817e-4 z m 8.80137,2.7225659 c -0.3663,0.404413 -0.87089,0.816346 -1.48879,1.022879 0.30209,0.05674 0.60272,0.116947 0.90305,0.181185 0.22689,-0.49072 0.42205,-0.887512 0.58574,-1.204064 z m -99.23273,32.151202 c -5.0128,-0.19722 -6.96959,-0.06916 -11.90931,0.05848 -3.78352,0.126418 -7.53817,0.615725 -11.24208,1.371827 -0.49333,0.731301 -0.9977,1.455381 -1.50892,2.174219 1.17854,0.114702 2.35374,0.275993 3.524,0.466862 0.30195,0.04924 1.48057,0.274285 2.666,0.500414 0.49089,-0.160196 0.98268,-0.317782 1.47537,-0.472614 3.50807,-1.091902 7.16657,-1.549693 10.78385,-2.123408 4.23453,-0.684878 8.49727,-1.181562 12.76634,-1.596156 -2.18245,-0.164825 -4.36764,-0.293554 -6.55525,-0.379621 z m 108.99754,11.653344 c -0.45452,-0.01423 -0.90112,0.112547 -1.32678,0.330735 0.68383,0.04579 1.2977,-0.02297 1.78309,-0.267462 -0.15263,-0.03794 -0.30481,-0.05852 -0.45631,-0.06327 z m -71.53638,13.209237 c -2.72698,3.697781 -8.10745,6.566489 -16.21172,6.901322 -3.05345,0.126158 -6.1072,0.249503 -9.16374,0.269382 -9.40477,-0.02199 -18.82327,-0.255349 -28.17184,-1.367994 -1.05655,0.405714 -2.10842,0.823532 -3.15684,1.24912 -5.22572,2.1022 -10.47853,4.14124 -15.61161,6.465137 -2.87949,1.352675 -5.68018,2.855004 -8.50227,4.320633 -0.98639,2.198736 -2.44645,4.507016 -4.45388,6.86585 -5.7244,6.72645 -11.48169,13.425032 -17.28159,20.086592 -2.91973,3.48182 -6.039656,6.81029 -8.777395,10.44257 -1.044499,1.3858 -1.789105,2.5299 -2.761869,3.97073 -3.030524,4.57866 -5.846202,9.29322 -8.771645,13.93877 -2.411687,3.59319 -4.692043,7.27598 -6.814087,11.04748 -1.467048,2.76087 -2.594624,5.6896 -3.75695,8.58855 -0.671621,1.78253 -1.444686,3.56669 -1.758159,5.45759 -0.216239,3.60532 -0.366987,7.21665 -0.513838,10.82603 -0.177101,4.98805 -0.338437,9.97866 -0.308688,14.97028 0.09775,4.26306 0.564611,8.50953 1.217486,12.72033 0.656317,3.83211 1.440671,7.63885 2.255707,11.43956 0.624364,2.45569 0.760456,5.0241 1.443724,7.46501 0.698464,2.21015 1.459886,4.40043 2.196267,6.59839 1.203183,4.04333 2.165237,8.15316 3.18751,12.24483 0.883674,3.38758 1.797435,6.76978 2.734069,10.14348 1.162606,4.06562 1.91699,8.23009 2.989073,12.31769 0.175452,0.65172 0.598684,2.21821 0.772673,2.88458 0.01178,0.0451 0.264605,1.59837 0.584773,1.69297 0.282045,0.48447 0.573911,0.96413 0.871412,1.4399 2.495099,0.69445 5.194416,1.9331 8.031573,3.82405 9.249194,6.16459 18.513204,12.30671 27.750994,18.48852 9.00371,5.92314 17.78355,12.17463 26.63513,18.3198 4.66325,3.31232 9.40733,6.50838 14.23978,9.56829 3.66804,2.39103 7.56109,4.40909 11.5805,6.13631 2.79983,1.18493 5.75654,1.83768 8.75247,2.272 1.21738,0.15513 2.43644,0.29651 3.65629,0.43044 1.85153,-3.31149 5.43573,-6.53963 11.08391,-9.02377 8.37909,-3.68523 16.85856,-7.13534 25.32274,-10.61897 6.42353,-2.64231 12.8074,-5.38265 19.06275,-8.40352 2.98079,-1.49615 5.97201,-2.98666 8.86176,-4.65425 3.24609,-1.86665 6.54105,-3.6431 9.88176,-5.33393 3.90931,-1.83944 7.78239,-3.75129 11.74826,-5.46718 3.373,-1.40751 6.84013,-2.5682 10.37067,-3.50674 0.5948,-0.23229 1.26213,-0.25688 1.84061,-0.53205 1.54344,-0.73418 3.025,-1.29219 4.43759,-1.69202 0.35535,-0.74738 0.70901,-1.49529 1.06122,-2.2442 2.00881,-4.36619 3.79597,-8.82932 5.6963,-13.24278 1.39661,-3.19917 2.71003,-6.43394 4.13849,-9.6191 1.19125,-2.48964 2.47699,-4.93461 3.8068,-7.35284 0.87613,-1.8226 1.83819,-3.60479 2.71394,-5.42884 0.77042,-1.65617 1.37501,-3.36878 1.93743,-5.10385 0.98064,-3.03514 1.86519,-6.10201 2.73982,-9.16949 0.77813,-3.25126 1.77957,-6.44326 2.59411,-9.68428 0.82445,-3.68117 1.75465,-7.33781 2.4829,-11.03981 0.71759,-3.81117 1.661,-7.57424 2.30076,-11.40026 0.37432,-2.63908 0.70408,-5.28285 0.91168,-7.9405 0.18689,-3.48835 0.34946,-6.97822 0.52246,-10.4675 0.17934,-3.46836 0.28887,-6.93979 0.11504,-10.40998 -0.28036,-2.25401 -0.3582,-4.54537 -0.80622,-6.77573 -0.14404,-0.94575 -0.44223,-1.84219 -0.89347,-2.68039 -1.15875,-2.15277 -2.16852,-4.3798 -3.29583,-6.5495 -1.00512,-2.07937 -2.19861,-4.05618 -3.31693,-6.07496 -1.07065,-1.8485 -2.11116,-3.71132 -3.19135,-5.55442 -1.55704,-2.56483 -2.67023,-5.36674 -3.84706,-8.1188 -1.31903,-2.86908 -2.74654,-5.68806 -4.32735,-8.42174 -1.99515,-3.30641 -4.04776,-6.58371 -6.39611,-9.65265 -2.22425,-2.97985 -4.72528,-5.73812 -7.33942,-8.37764 -2.15621,-2.22697 -4.52945,-4.1962 -6.9157,-6.163159 -1.7563,-1.412159 -3.46063,-2.886844 -5.22848,-4.285166 -1.70149,-1.223631 -3.51231,-2.268861 -5.32146,-3.320761 -2.81654,-1.606757 -5.63435,-3.208204 -8.39586,-4.908292 -3.71299,-2.218369 -7.22201,-4.749853 -10.7225,-7.28382 -1.8071,-1.356891 -3.76729,-2.937973 -5.41829,-4.758737 -2.01767,-0.352435 -4.03602,-0.699568 -6.05579,-1.041097 -6.62225,-1.076152 -13.25074,-2.124076 -19.83542,-3.415667 -4.94129,-0.924937 -9.88002,-1.898658 -14.90222,-2.274874 -0.10167,-0.0084 -0.20316,-0.01669 -0.30485,-0.02493 z m 129.968,174.566312 c -0.3175,1.04031 -0.64219,2.07795 -0.97686,3.11274 -0.92262,2.81058 -1.9444,5.58384 -3.2086,8.26164 -1.07999,2.22852 -2.23442,4.41871 -3.33706,6.63578 -1.00641,1.82512 -1.97211,3.67286 -2.89992,5.53907 -1.38526,3.051 -2.61238,6.17221 -3.96977,9.23564 -0.71903,1.66676 -1.42099,3.34113 -2.12437,5.0147 5.00455,2.79334 8.04264,8.34633 9.84726,13.52846 0.68751,1.97427 1.09107,4.03667 1.63641,6.05484 0.41361,2.30554 0.90053,4.5991 1.24049,6.91665 0.86138,5.87226 1.46989,11.88373 1.38621,17.8654 1.36498,3.41515 1.14699,7.96598 -1.46098,13.00601 -1.31201,5.79982 -3.18092,9.20592 -5.82859,15.22048 -4.00709,6.6505 -5.1817,9.60551 -10.81837,15.02588 -1.87579,1.80381 -3.81787,3.70312 -6.20534,4.73861 -3.51516,1.52459 -7.74871,4.55179 -11.15101,2.78967 -1.53466,-0.79483 -2.9314,-1.82554 -4.20272,-3.02167 -0.79383,0.78507 -1.6355,1.52852 -2.51742,2.22695 -1.16702,0.92423 -2.46472,1.66855 -3.69751,2.50303 -1.25712,0.62344 -2.47995,1.32285 -3.75982,1.89621 0.69271,2.79393 1.78827,6.31769 3.59206,10.75989 -1.19662,1.03742 -2.32934,2.15334 -3.59015,3.11177 -0.10013,0.0761 -0.20097,0.15074 -0.30293,0.22433 h 52.34899 z M 56.728263,252.34233 v 51.607 c 3.51291,-1.10125 7.276634,-1.41546 10.887387,-0.54643 1.219331,0.29347 2.368607,0.82639 3.552755,1.23953 0.456142,0.25706 0.921752,0.49902 1.382375,0.74871 0.657878,-2.83901 2.615813,-5.44947 5.791205,-7.22822 -0.293044,-0.26181 -0.586516,-0.53266 -0.880041,-0.81294 -1.443954,-1.37877 -0.710583,-0.67384 -2.196267,-2.11574 -2.128135,-2.1619 -4.138845,-4.42983 -5.775867,-6.99527 -1.685348,-2.58632 -3.440886,-5.13896 -4.868982,-7.8801 -0.763209,-1.60457 -0.986236,-1.95032 -1.543425,-3.54988 -0.686434,-1.97058 -1.113524,-4.01268 -1.686267,-6.01649 -1.020909,-3.96248 -1.804046,-7.98102 -2.885538,-11.92848 -0.599032,-2.17203 -1.193956,-4.34527 -1.777335,-6.52169 z M 300.34708,314.2644 c -3.2878,3.19527 -6.55903,6.40782 -9.83766,9.61238 -2.32402,2.25837 -4.66143,4.50242 -7.01253,6.7326 1.09798,0.37511 2.19842,0.73168 3.30735,1.04589 0.14045,1.19311 0.32975,2.38345 0.52054,3.57384 2.09674,0.63416 3.9526,1.4891 5.58414,2.5759 0.221,-2.07709 0.72421,-4.33092 1.55972,-6.74411 1.94074,-5.60536 3.87346,-11.21378 5.87844,-16.7965 z m -48.78569,11.82495 c -5.48507,2.5447 -11.04323,4.92779 -16.63833,7.22246 -4.30475,1.77161 -8.60948,3.54324 -12.90726,5.33201 0.69528,-0.046 1.39003,-0.0959 2.08506,-0.14954 6.17116,-0.48185 12.43862,-0.89976 18.31405,-3.00729 0.94886,-0.34036 1.87307,-0.62834 2.77146,-0.86758 0.54067,-1.07332 1.15925,-2.1173 1.87128,-3.12424 0.58657,-0.76665 1.15009,-1.55164 1.76008,-2.2998 0.87354,-1.07138 1.79405,-2.10163 2.74366,-3.10602 z m -192.469095,0.61257 -9.81e-4,9.8e-4 -9.82e-4,9.8e-4 v 9.9e-4 h -9.81e-4 v 9.8e-4 9.8e-4 c -4.91e-4,0.0284 0.07749,0.15325 0.117911,0.1946 0.143209,0.14662 0.315044,0.262 0.472614,0.39305 0.137437,0.0827 0.277481,0.1608 0.418933,0.23391 -0.304054,-0.30512 -0.630131,-0.58441 -0.991244,-0.82061 -0.005,-0.003 -0.0095,-0.005 -0.01247,-0.006 h -9.82e-4 -9.81e-4 z m 66.963615,5.18726 c 0.0324,0.0401 0.0636,0.081 0.0949,0.12175 0.20667,0.16928 0.42885,0.37322 0.47645,0.33552 l 9.8e-4,-9.8e-4 9.8e-4,-9.8e-4 9.8e-4,-9.8e-4 v -9.8e-4 -9.9e-4 l 9.8e-4,-9.8e-4 c -1.8e-4,-0.0507 -0.26995,-0.25857 -0.48987,-0.39784 -0.029,-0.0184 -0.0574,-0.0363 -0.0853,-0.0537 z m -63.336086,8.8445 c -0.01585,0.003 -0.03127,0.008 -0.04697,0.0115 0.05424,0.0135 0.09074,0.0211 0.101616,0.0201 h 9.82e-4 9.82e-4 l 9.81e-4,-9.8e-4 h 9.82e-4 v -9.9e-4 -9.8e-4 h -9.82e-4 c -0.0044,-0.004 -0.02282,-0.0144 -0.05752,-0.0288 z m 179.610726,21.06825 c -1.14329,0.23201 -2.29223,0.43724 -3.44539,0.62025 1.60326,0.7483 3.16,1.61736 4.66767,2.60177 -0.19864,-0.41701 -0.38885,-0.83794 -0.55602,-1.26829 -0.25051,-0.64491 -0.47188,-1.29662 -0.66626,-1.95373 z m -99.46568,0.12654 c -0.73852,0.87295 -1.46809,1.75292 -2.17517,2.65163 -0.34288,0.43582 -0.67205,0.88262 -1.00659,1.32485 -0.0636,0.0841 -0.1127,0.19343 -0.16201,0.30389 0.0459,0.0948 0.093,0.18962 0.14188,0.28281 0.15257,0.31768 0.27547,0.58771 0.3873,0.82156 3.49722,0.42492 6.99888,0.88038 10.5231,0.88483 1.22262,9.8e-4 2.44393,-0.0824 3.66587,-0.12366 1.61852,-0.12886 3.24125,-0.2124 4.85557,-0.38634 4.02057,-0.43321 8.84999,-1.21474 12.79989,-1.8454 4.38083,-0.69946 8.75891,-1.41433 13.1383,-2.12053 -2.6377,-0.21788 -5.27417,-0.45665 -7.91078,-0.67777 -6.63701,-0.53372 -13.29318,-0.74354 -19.94759,-0.91359 -4.76904,-0.10609 -9.5397,-0.16096 -14.30977,-0.20228 z m -4.15574,1.72653 v 9.8e-4 l -9.8e-4,9.8e-4 -9.8e-4,9.8e-4 v 9.9e-4 c -0.0168,0.0441 0.0606,0.36613 0.0892,0.49179 0.0723,0.31925 0.16195,0.63576 0.26746,0.94619 -0.0287,-0.50311 -0.0988,-1.05036 -0.32881,-1.41784 -0.009,-0.0136 -0.0153,-0.0215 -0.0201,-0.024 h -9.8e-4 -9.8e-4 -9.8e-4 -9.8e-4 -9.8e-4 z m -80.485371,14.11612 v 9.8e-4 h -9.81e-4 l -9.82e-4,9.8e-4 v 9.9e-4 l -9.82e-4,9.8e-4 c -0.01728,0.0409 0.08118,0.32799 0.180223,0.37196 0.0736,0.0326 0.146998,0.0657 0.22049,0.0987 -0.121642,-0.15596 -0.24591,-0.30939 -0.374831,-0.45919 -0.005,-0.006 -0.01075,-0.0111 -0.01438,-0.0134 h -9.81e-4 l -9.82e-4,-9.8e-4 -9.82e-4,-9.9e-4 h -9.81e-4 -9.82e-4 -9.81e-4 -9.82e-4 -9.82e-4 z m 6.305996,11.64184 c -0.743762,0.99065 -0.91649,0.69173 -0.491786,1.25488 0.208318,-0.40724 0.37119,-0.82665 0.491786,-1.25488 z" /></clipPath><linearGradient
     inkscape:collect="always"
     xlink:href="#SVGID_5_"
     id="linearGradient63"
     gradientUnits="userSpaceOnUse"
     gradientTransform="matrix(7.8769,0,0,-7.8769,364.0537,4969.6694)"
     x1="-28.743799"
     y1="552.58502"
     x2="-28.743799"
     y2="575.03497" /></defs><sodipodi:namedview
   id="namedview6"
   pagecolor="#ffffff"
   bordercolor="#000000"
   borderopacity="0.25"
   inkscape:showpageshadow="2"
   inkscape:pageopacity="0.0"
   inkscape:pagecheckerboard="0"
   inkscape:deskcolor="#d1d1d1"
   inkscape:zoom="0.96624999"
   inkscape:cx="386.02846"
   inkscape:cy="314.10091"
   inkscape:window-width="1920"
   inkscape:window-height="991"
   inkscape:window-x="-9"
   inkscape:window-y="-9"
   inkscape:window-maximized="1"
   inkscape:current-layer="Layer_1"
   showguides="false" />

<g
   id="g40"
   style="display:none"
   transform="translate(-40.652435,-63.74758)"><path
     style="fill:url(#linearGradient28);fill-opacity:1"
     d="M 308.399,104.438 C 356.74,56.089 429.759,47.511 486.906,78.641 480.163,66.258 471.585,54.601 461.101,44.124 c -58.825,-58.833 -154.199,-58.833 -213.024,0 -58.833,58.825 -58.817,154.199 0,213.024 10.476,10.476 22.126,19.062 34.517,25.797 -31.113,-57.131 -22.543,-130.166 25.805,-178.507 z"
     id="path3-1"
     transform="matrix(0.68795828,0,0,0.79836702,27.830611,5.9965529e-4)" /><path
     style="fill:url(#linearGradient27);fill-opacity:1"
     d="M 195.728,399.681 C 147.379,448.03 74.36,456.608 17.221,425.486 c 6.743,12.383 15.328,24.04 25.797,34.517 58.833,58.833 154.207,58.833 213.031,0 58.825,-58.825 58.825,-154.191 0,-213.023 -10.476,-10.468 -22.134,-19.054 -34.517,-25.797 31.114,57.122 22.544,130.157 -25.804,178.498 z"
     id="path10"
     transform="matrix(0.68795828,0,0,0.79836702,27.830611,5.9965529e-4)" /></g><g
   id="g28"
   transform="matrix(0.86603357,0,0,0.79837574,-57.706368,-63.74758)"
   style="display:none"><polygon
     style="fill:url(#linearGradient24)"
     points="224.492,0 50.814,100.281 224.492,200.546 "
     id="polygon4" /><polygon
     style="display:inline;fill:url(#linearGradient10)"
     points="19.692,352.319 193.331,252.062 19.692,151.812 "
     id="polygon7" /><polygon
     style="fill:url(#linearGradient26)"
     points="279.631,0 279.631,200.523 453.285,100.265 "
     id="polygon11" /><g
     id="g19">
	
		<linearGradient
   id="SVGID_4_"
   gradientUnits="userSpaceOnUse"
   x1="0.30669999"
   y1="552.58502"
   x2="0.30669999"
   y2="575.03497"
   gradientTransform="matrix(7.8769,0,0,-7.8769,364.0537,4969.6694)">
		<stop
   offset="0"
   style="stop-color:#29D3DA"
   id="stop12" />
		<stop
   offset="0.519"
   style="stop-color:#0077FF"
   id="stop13" />
		<stop
   offset="0.999"
   style="stop-color:#064093"
   id="stop14" />
		<stop
   offset="1"
   style="stop-color:#084698"
   id="stop15" />
	</linearGradient>
	<polygon
   style="fill:url(#SVGID_4_)"
   points="279.631,303.561 279.631,504.123 453.309,403.842 "
   id="polygon15" />
	
		<linearGradient
   id="SVGID_5_"
   gradientUnits="userSpaceOnUse"
   x1="-28.743799"
   y1="552.58502"
   x2="-28.743799"
   y2="575.03497"
   gradientTransform="matrix(7.8769,0,0,-7.8769,364.0537,4969.6694)">
		<stop
   offset="0"
   style="stop-color:#29D3DA"
   id="stop16" />
		<stop
   offset="0.519"
   style="stop-color:#0077FF"
   id="stop17" />
		<stop
   offset="0.999"
   style="stop-color:#064093"
   id="stop18" />
		<stop
   offset="1"
   style="stop-color:#084698"
   id="stop19" />
	</linearGradient>
	<polygon
   style="fill:url(#linearGradient63)"
   points="224.492,303.561 50.79,403.826 224.492,504.123 "
   id="polygon19" />
</g><polygon
     style="display:inline;fill:url(#linearGradient20)"
     points="484.431,151.78 310.745,252.054 484.431,352.327 "
     id="polygon22" /><polygon
     style="fill:url(#linearGradient8)"
     points="193.331,252.062 19.692,265.224 19.692,352.319 "
     id="polygon25" /><polygon
     style="fill:url(#linearGradient22)"
     points="310.745,252.054 484.431,352.327 484.431,265.185 "
     id="polygon28" /></g>


<g
   id="g1"
   style="display:inline"
   inkscape:label="Main"
   transform="matrix(0.85580868,0,0,0.85580868,-34.790117,-54.50424)"><path
     style="display:inline;fill:url(#linearGradient30)"
     d="m 429.31,142.507 c 26.002,26.002 30.625,65.284 13.887,96.02 6.656,-3.639 12.942,-8.247 18.566,-13.887 31.642,-31.642 31.626,-82.928 0,-114.578 -31.657,-31.642 -82.936,-31.642 -114.578,-0.008 -5.632,5.64 -10.256,11.91 -13.879,18.566 30.744,-16.722 70.002,-12.114 96.004,13.887 z"
     id="path7"
     transform="matrix(0.68795828,0,0,0.79836702,27.830611,5.9965529e-4)" /><path
     style="display:inline;fill:url(#linearGradient33);fill-opacity:1;fill-rule:evenodd;stroke-width:25.3986"
     d="m 190.12136,85.695245 c -36.52264,3.346075 -70.41193,25.674965 -88.8893,57.223105 -8.729741,14.78945 -14.40706,31.51184 -15.661823,48.68229 1.661994,2.34839 5.893437,0.60064 8.570819,1.25916 5.140017,0.0803 11.591664,-0.36803 14.815774,4.53192 2.61936,4.12549 2.24714,10.24995 -1.76501,13.40771 -3.71076,3.28677 -9.205595,1.87885 -13.725304,2.44664 -2.252838,0.74676 -7.252589,-1.37661 -7.499585,1.81834 4.217281,36.00902 26.456339,69.34363 58.113779,87.03678 14.38968,8.06945 30.5015,13.5387 47.01464,14.63128 3.08531,-0.43666 1.06139,-5.16768 1.80597,-7.41112 0.0369,-4.6366 0.64315,-10.68122 5.73156,-12.66062 6.09127,-3.30341 15.27422,1.64336 14.37603,8.955 0.31262,3.58822 -0.24952,7.37761 0.61016,10.82816 7.2452,-0.20734 14.50705,-2.32914 21.51642,-4.32249 34.22959,-10.28252 62.83447,-37.31969 74.9608,-70.95166 3.14065,-8.81155 5.72253,-18.05753 6.43051,-27.35046 -2.44703,-1.41512 -6.11031,-0.26629 -9.05761,-0.65519 -4.01419,0.16351 -8.69938,-0.82653 -10.48007,-4.8956 -3.63974,-5.88234 0.65035,-14.78427 7.73865,-14.98817 3.95306,-0.67691 8.10361,-0.0248 11.93438,-0.99214 -0.0707,-11.14652 -3.3781,-22.18996 -7.19395,-32.6432 -12.43477,-33.01598 -40.83145,-59.37677 -74.62892,-69.453045 -6.94155,-1.945051 -14.15254,-4.049739 -21.31545,-4.203018 -1.1954,6.351037 0.84122,13.305944 -1.49415,19.497423 -3.31909,6.37823 -13.35726,6.86911 -17.2562,0.81058 -2.7353,-4.41104 -1.12592,-10.025987 -1.51319,-14.921428 -0.16432,-2.151152 1.18793,-6.604171 -2.53075,-5.690169 l -0.5079,0.0083 z m 13.12495,29.649935 c 15.74115,-0.74759 31.36171,4.21283 44.94667,12.1467 24.54252,14.29621 41.09599,41.09483 42.93453,69.43824 1.9446,26.43641 -8.57366,53.5445 -28.44991,71.30381 -13.74861,12.54057 -31.549,20.80402 -50.03677,22.56626 -10.98259,0.82673 -22.24134,0.72126 -32.88231,-2.57776 -28.09944,-7.70811 -51.859,-30.07402 -60.47853,-58.06646 -8.83584,-26.51243 -3.7879,-56.96228 13.05696,-79.28433 14.58236,-19.75618 37.73701,-33.06691 62.06448,-35.37367 2.94558,-0.15465 5.89628,-0.14216 8.84488,-0.15279 z"
     id="path5" /><path
     style="display:inline;fill:#ffc652;fill-opacity:1"
     d="m 203.19441,292.21241 c -49.067,0 -89.018,-39.951 -89.018,-89.018 0,-49.067 39.952,-89.018 89.018,-89.018 49.066,0 89.018,39.951 89.018,89.018 0,49.067 -39.951,89.018 -89.018,89.018 z"
     id="path2" /><g
     id="g4"
     style="display:inline"
     transform="translate(6.8954129,6.927412)">
	<path
   style="display:inline;fill:#4c9900;fill-opacity:1"
   d="m 189.059,162.586 h 36.784 c 6.012,0 10.925,-4.848 10.925,-10.925 0,-6.012 -4.848,-10.925 -10.925,-10.925 h -13.059 v -6.012 c 0,-6.012 -4.848,-10.925 -10.925,-10.925 -6.012,0 -10.925,4.848 -10.925,10.925 v 6.012 h -1.939 c -18.295,0 -33.228,14.933 -33.228,33.228 0,18.295 14.933,33.228 33.228,33.228 h 14.545 c 6.271,0 11.442,5.107 11.442,11.442 0,6.271 -5.107,11.442 -11.442,11.442 h -36.848 c -6.012,0 -10.925,4.848 -10.925,10.925 0,6.012 4.848,10.925 10.925,10.925 h 24.242 v 6.077 c 0,6.012 4.848,10.925 10.925,10.925 6.077,0 10.925,-4.848 10.925,-10.925 v -7.434 c 13.834,-4.008 23.984,-16.743 23.984,-31.935 0,-18.295 -14.933,-33.228 -33.228,-33.228 h -14.545 c -6.271,0 -11.442,-5.107 -11.442,-11.442 0.063,-6.271 5.235,-11.378 11.506,-11.378 z"
   id="path3" />
	<g
   id="g48"
   style="display:inline"><path
     style="display:inline;fill:none;fill-opacity:1;stroke:url(#linearGradient51);stroke-width:22.1029;stroke-dasharray:none;stroke-opacity:1"
     d="m 194.34438,320.69296 c -69.66137,0 -126.380575,-56.7192 -126.380575,-126.38058 0,-69.66137 56.720635,-126.380575 126.380575,-126.380575 69.65995,0 126.38058,56.719205 126.38058,126.380575 0,69.66138 -56.7192,126.38058 -126.38058,126.38058 z"
     id="path6" /></g>
<path
   style="display:inline;fill:url(#linearGradient54);stroke:none"
   d="M 278.659,83.717 231.41753,71.88174 c -5.83178,-1.461016 3.26556,-1.162809 -2.79844,-0.765544 l -69.78491,4.571756 c -54.26315,3.554892 -25.34585,12.896785 -31.24391,11.432973 L 113.875,83.717 c -34.586,25.471 -57.147,66.392 -57.147,112.614 0,46.222 22.562,87.143 57.212,112.614 l 35.05013,5.73959 c 5.93297,0.97154 -13.41008,-7.95448 -7.36203,-7.36203 l 108.89882,10.66743 c 5.98337,0.58612 8.01802,-13.15339 13.97284,-11.94094 L 278.723,308.945 c 34.586,-25.406 57.212,-66.392 57.212,-112.614 0,-46.222 -22.626,-87.143 -57.276,-112.614 z M 136.23297,82.80774 213.18634,67.060582 256.872,70.53 h -0.065 c -18.295,-8.792 -38.853,-13.77 -60.509,-13.77 -21.721,0 -42.214,4.913 -60.509,13.834 h -0.065 z m 98.7972,235.17509 -72.89058,0.50797 -26.41459,3.6422 h 0.065 c 18.295,8.792 38.853,6.21441 60.509,6.21441 21.656,0 42.214,2.70659 60.509,-6.15041 h 0.065 z M 207.224,313.535 v -14.739 c 0,-6.012 -4.848,-10.925 -10.925,-10.925 -6.077,0 -10.925,4.848 -10.925,10.925 v 14.739 C 129.132,308.363 84.202,263.434 79.031,207.192 H 93.77 c 6.012,0 10.925,-4.848 10.925,-10.925 0,-6.077 -4.848,-10.925 -10.925,-10.925 H 79.03 C 84.202,129.1 129.131,84.17 185.373,78.999 v 14.739 c 0,6.012 4.848,10.925 10.925,10.925 6.077,0 10.925,-4.848 10.925,-10.925 v -14.74 c 56.242,5.172 101.172,50.101 106.343,106.343 h -14.739 c -6.012,0 -10.925,4.848 -10.925,10.925 0,6.012 4.848,10.925 10.925,10.925 h 14.739 c -5.235,56.308 -50.099,101.173 -106.342,106.344 z"
   id="path4"
   clip-path="url(#clipPath56)"
   sodipodi:nodetypes="csssscscsssscscccccscccccccsccccsssccsssccsssccssscc" /></g><g
     id="g14"
     transform="matrix(0.68795829,0,0,0.79836702,27.830611,5.9965423e-4)"
     inkscape:groupmode="layer"
     style="display:inline"><path
       style="fill:url(#linearGradient31)"
       d="m 74.809,361.62 c -26.01,-26.01 -30.61,-65.284 -13.871,-96.02 -6.664,3.631 -12.95,8.247 -18.574,13.879 -31.642,31.634 -31.634,82.936 0.008,114.578 31.642,31.634 82.928,31.634 114.57,0 5.64,-5.64 10.256,-11.91 13.879,-18.566 -30.744,16.738 -70.01,12.123 -96.012,-13.871 z"
       id="path14" /></g></g><circle
   style="display:none;fill:#0b91f5;fill-opacity:1;fill-rule:evenodd;stroke-width:24.5414"
   id="path37"
   cx="160.58736"
   cy="137.49222"
   r="16.163595" /><rect
   style="display:none;fill:url(#linearGradient37);fill-rule:evenodd;stroke-width:24.5414"
   id="rect35"
   width="25.906614"
   height="91.943085"
   x="-21.781273"
   y="202.42094"
   ry="12.953307"
   transform="rotate(-51.831103)" /></svg>
