<?xml version="1.0" encoding="UTF-8" standalone="no"?>
<!-- Uploaded to: SVG Repo, www.svgrepo.com, Generator: SVG Repo Mixer Tools -->

<svg
   height="820"
   width="820"
   version="1.1"
   id="Layer_1"
   viewBox="0 0 402.47957 402.47957"
   xml:space="preserve"
   sodipodi:docname="CronoPayLogo.svg"
   inkscape:version="1.4.2 (ebf0e94, 2025-05-08)"
   inkscape:export-filename="time-is-money-svgrepo-com (4).png"
   inkscape:export-xdpi="154.28575"
   inkscape:export-ydpi="154.28575"
   xmlns:inkscape="http://www.inkscape.org/namespaces/inkscape"
   xmlns:sodipodi="http://sodipodi.sourceforge.net/DTD/sodipodi-0.dtd"
   xmlns:xlink="http://www.w3.org/1999/xlink"
   xmlns="http://www.w3.org/2000/svg"
   xmlns:svg="http://www.w3.org/2000/svg"><defs
   id="defs6"><linearGradient
     id="linearGradient35"
     inkscape:collect="always"><stop
       style="stop-color:#bfbfbf;stop-opacity:1;"
       offset="0"
       id="stop33" /><stop
       style="stop-color:#ffffff;stop-opacity:1;"
       offset="0.5"
       id="stop34" /></linearGradient><linearGradient
     id="linearGradient55"><stop
       style="stop-color:#7db4e8;stop-opacity:1;"
       offset="0"
       id="stop23" /><stop
       style="stop-color:#2683d9;stop-opacity:1;"
       offset="0.5"
       id="stop24" /><stop
       style="stop-color:#174f82;stop-opacity:1;"
       offset="1"
       id="stop25" /></linearGradient><linearGradient
     id="linearGradient9"
     gradientUnits="userSpaceOnUse"
     x1="-28.743799"
     y1="552.58502"
     x2="-28.743799"
     y2="575.03497"
     gradientTransform="matrix(7.8769,0,0,-7.8769,364.0537,4969.6694)">
		<stop
   offset="0"
   style="stop-color:#29d4da;stop-opacity:1;"
   id="stop5" />
		<stop
   offset="0.519"
   style="stop-color:#0077FF"
   id="stop6" />
		<stop
   offset="0.999"
   style="stop-color:#064093"
   id="stop7" />
		<stop
   offset="1"
   style="stop-color:#084698;stop-opacity:1;"
   id="stop8" />
	</linearGradient><linearGradient
     id="linearGradient55-1"><stop
       style="stop-color:#29d4da;stop-opacity:1;"
       offset="0"
       id="stop54" /><stop
       style="stop-color:#0077ff;stop-opacity:1;"
       offset="0.5"
       id="stop56" /><stop
       style="stop-color:#084698;stop-opacity:1;"
       offset="1"
       id="stop55" /></linearGradient><linearGradient
     id="linearGradient47"
     inkscape:collect="always"><stop
       style="stop-color:#71db98;stop-opacity:1;"
       offset="0"
       id="stop47" /><stop
       style="stop-color:#2eb860;stop-opacity:1;"
       offset="0.5"
       id="stop58" /><stop
       style="stop-color:#196635;stop-opacity:1;"
       offset="1"
       id="stop48" /></linearGradient><linearGradient
     id="linearGradient45"
     inkscape:collect="always"><stop
       style="stop-color:#ffd966;stop-opacity:1;"
       offset="0"
       id="stop45" /><stop
       style="stop-color:#ffbf00;stop-opacity:1;"
       offset="0.5"
       id="stop57" /><stop
       style="stop-color:#997300;stop-opacity:1;"
       offset="1"
       id="stop46" /></linearGradient><clipPath
     clipPathUnits="userSpaceOnUse"
     id="clipPath43"><path
       id="path44"
       style="fill:#ff0000;fill-opacity:1;fill-rule:nonzero;stroke:none;stroke-width:0.490829"
       d="m 56.728107,0 v 134.21866 c 1.709699,-3.7793 3.40427,-7.56564 5.097144,-11.35234 1.493685,-3.05047 2.909637,-6.13888 4.424168,-9.17907 1.518183,-2.77765 3.095839,-5.52448 4.975394,-8.07854 2.226006,-3.01633 4.443413,-6.039106 6.685622,-9.042949 1.930322,-2.414941 3.942518,-4.760018 6.034701,-7.036486 2.225152,-2.49343 4.481006,-4.95637 6.656864,-7.493768 1.970393,-2.179647 4.007706,-4.297245 6.027991,-6.430622 1.598737,-1.701286 3.202559,-3.396726 4.804759,-5.094267 -0.0169,-0.386906 -0.033,-0.778749 -0.0527,-1.178181 -0.0365,-6.268771 0.72897,-12.505089 1.42455,-18.724351 0.56086,-4.879638 1.05727,-9.766075 1.42072,-14.664467 0.0597,-1.80906 0.26382,-3.599451 0.59532,-5.369398 -0.18959,-0.266481 -0.37427,-0.535992 -0.55122,-0.811017 -2.61239,-4.060376 -4.15686,-8.717769 -4.05317,-13.56969 0.12419,-1.131932 0.14761,-2.279134 0.37196,-3.395538 0.96219,-4.7878059 3.69416,-8.8423613 7.35667,-11.98408225 C 108.33972,0.50280649 108.66772,0.23887903 108.96782,0 Z M 287.4761,0 c 3.78359,2.4346378 6.89723,3.9280659 9.11101,8.3613443 2.3085,4.6229707 2.77764,8.1928467 1.72557,12.4135577 0.45816,0.649473 0.87312,1.32554 1.22323,2.042883 0.10181,0.208586 0.19848,0.41929 0.28952,0.632709 3.76989,2.192733 6.11033,7.211052 9.41394,10.325618 0.44861,4.019188 0.81304,8.050666 1.5741,12.02818 0.87918,5.413953 1.68843,10.845341 2.2279,16.304717 0.58949,6.109605 1.14545,12.231334 2.38225,18.253656 1.12402,5.964595 2.35463,11.915177 4.0014,17.760903 0.22181,0.807929 0.32524,1.197529 0.36621,1.353613 -0.032,-0.129088 -0.086,-0.360544 -0.0729,-0.393046 l 9.8e-4,-9.82e-4 9.9e-4,-9.82e-4 9.8e-4,-9.81e-4 h 9.8e-4 9.8e-4 9.8e-4 9.8e-4 9.9e-4 c 0.0358,0.02395 0.17649,0.364008 0.55889,1.48399 9.8e-4,0.002 0.001,0.005 0.002,0.008 v 9.8e-4 9.9e-4 c -1.5e-4,9.8e-4 -4.9e-4,0.004 -9.8e-4,0.005 -0.0117,0.0286 -0.0919,0.038 -0.18214,0.0307 0.3493,0.44404 0.76515,0.83711 1.08423,1.30472 2.0407,2.62099 3.78034,5.46894 4.66479,8.70455 0.6071,2.29207 1.12686,4.61069 1.94223,6.84284 0.67379,2.01422 1.35667,4.0245 2.13012,6.00306 0.17458,0.68026 0.81564,1.46506 1.14079,1.98728 0.65588,1.05336 1.32273,2.09852 2.03138,3.11849 0.95049,1.46 1.90095,2.92047 2.8376,4.38966 V 0 Z m -86.05321,32.509735 c -0.55248,0.303828 -1.11659,0.610565 -1.69393,0.921263 -2.56785,1.381889 -5.16568,2.711206 -7.79766,3.966893 1.59248,0.05598 3.18447,0.126385 4.77599,0.212821 2.6115,0.170855 5.22273,0.339002 7.82738,0.566562 -1.39336,-1.600459 -2.39782,-3.491267 -3.11178,-5.667539 z m 37.71233,5.383778 c -0.25388,0.282959 -0.4904,0.566688 -0.70365,0.847447 -0.21326,0.280764 -0.28175,0.646051 -0.42277,0.969195 0.42779,-0.699115 0.80547,-1.291577 1.12642,-1.816642 z m -85.97364,0.359494 c -0.16623,0.08141 -0.29794,0.145458 -0.38826,0.188854 -2.02077,0.971091 -4.06969,1.882283 -6.10468,2.823224 -0.0137,0.0057 -0.0294,0.01181 -0.047,0.01917 0.0843,0.50929 0.15991,1.020559 0.2272,1.532881 2.54353,-0.97998 5.10906,-1.899148 7.7085,-2.689971 -0.56777,-0.603409 -1.0299,-1.227495 -1.39579,-1.874161 z m 92.69186,4.922667 c -1.91323,1.494906 -3.89897,2.709678 -7.06142,3.894036 -0.63246,0.236861 -1.27542,0.473694 -1.92593,0.691187 0.69708,0.333923 1.39279,0.66969 2.08794,1.007541 3.29126,0.183126 6.58245,0.373351 9.8693,0.634624 0.29976,0.03951 0.59891,0.0798 0.89826,0.12175 0.45683,-0.653554 0.95293,-1.355472 1.45044,-2.040006 -2.0196,-0.619647 -3.82174,-1.468577 -4.76545,-3.224899 -0.19584,-0.36447 -0.38024,-0.72588 -0.55314,-1.084233 z m -59.48806,23.385304 c -5.71459,-0.09474 -11.42449,0.09702 -17.12916,0.417013 -2.88402,0.31412 -5.83643,0.28468 -8.67866,0.928932 -0.81456,0.18464 -1.868,0.55179 -2.64587,0.806226 -3.37936,1.112007 -6.63907,2.549894 -9.91915,3.918963 -2.97106,1.381187 -6.08677,2.398611 -9.15703,3.52687 -0.0159,0.0049 -0.032,0.0095 -0.0479,0.01438 -0.0345,0.03936 -0.0688,0.07879 -0.10353,0.117912 -0.53031,0.596833 -1.11458,1.143341 -1.67189,1.715024 -2.89852,2.804453 -6.47153,4.676513 -10.11951,6.301206 -1.68567,0.6644 -3.409,1.284253 -5.17384,1.718862 -0.28717,0.29648 -0.57052,0.596995 -0.85127,0.898256 -1.91119,2.022931 -3.82313,4.044802 -5.72889,6.073044 -1.87343,2.01147 -3.81677,3.958401 -5.64359,6.012652 -2.15824,2.513322 -4.39327,4.956752 -6.59837,7.428582 -1.7639,1.93049 -3.491407,3.8919 -5.113448,5.94363 -2.034485,2.77364 -4.079254,5.53969 -6.121936,8.30766 -1.188536,1.63256 -2.155724,3.40135 -3.120404,5.17 -1.283385,2.72876 -2.575329,5.45423 -3.898829,8.16386 -1.616648,3.68306 -3.272798,7.3485 -4.931298,11.01297 -1.536127,3.49464 -3.097684,6.97719 -4.717517,10.43395 -1.203959,2.35531 -2.221211,4.79735 -3.307342,7.20713 -0.86189,1.74491 -1.427119,3.62117 -1.985363,5.4806 -0.793081,2.60726 -1.516273,5.23409 -2.046716,7.9079 -0.446365,2.53539 -0.738972,5.10304 -0.788968,7.67783 -0.02734,2.79746 0.08424,5.59883 0.333606,8.38531 0.283734,2.65205 0.504847,5.30849 0.64038,7.97213 0.169507,3.65798 0.111879,7.32128 0.228156,10.98038 0.02999,2.60334 0.2304,5.18545 0.718991,7.74205 0.431429,2.75848 1.250416,5.42806 1.985363,8.11497 0.88811,3.19223 1.918767,6.33552 3.099314,9.43024 1.01092,2.76813 2.290152,5.42522 3.510579,8.10443 1.681397,3.44735 3.11849,6.99872 4.40691,10.60938 1.01069,2.54923 1.64542,5.24336 2.724483,7.7641 0.754305,1.84052 1.567029,3.64886 2.598904,5.35023 0.844937,1.29629 1.903237,2.37276 3.037003,3.41375 1.984194,1.90133 4.049999,3.71564 6.117144,5.52566 1.571364,1.30954 3.168094,2.6094 4.877608,3.73682 1.22351,0.88511 2.51853,1.64448 3.83844,2.37074 1.6023,0.87582 3.16787,1.81033 4.73477,2.74749 1.5341,0.94624 3.0536,1.92419 4.63123,2.79734 2.72703,1.4877 5.03606,3.51763 7.20426,5.71643 1.38403,1.55572 2.90798,2.96967 4.47114,4.34076 1.37222,1.04469 2.42422,2.57129 3.95443,3.4128 1.32398,0.91403 2.82726,1.38169 4.33215,1.89429 3.01245,1.00889 6.0151,2.05765 9.0621,2.95935 2.83875,0.90718 5.66231,1.83848 8.52144,2.68135 2.75341,0.8115 5.50121,1.63879 8.22618,2.54234 2.19552,0.6511 4.24167,1.73985 6.43734,2.37937 3.11312,0.84552 6.24721,1.61024 9.38518,2.35732 3.03776,0.69654 6.12468,1.1424 9.22029,1.48207 2.53356,0.40175 5.08231,0.59653 7.64236,0.70556 0.5119,0.0146 1.02382,0.0279 1.53575,0.0402 4.28649,-0.0892 8.56864,-0.33024 12.83345,-0.77363 4.75754,-0.41296 9.46467,-1.13799 14.08929,-2.32377 4.6477,-1.13709 9.18487,-2.65573 13.63582,-4.40116 3.61672,-1.65187 7.19133,-3.42315 10.61035,-5.45664 2.12755,-1.26989 4.25015,-2.58248 6.55428,-3.51728 2.0786,-0.8433 2.60794,-0.93039 4.68013,-1.50317 1.56185,-0.39899 3.13954,-0.69551 4.72806,-0.89921 1.07886,-0.96125 2.13047,-1.95356 3.20669,-2.91813 2.30115,-2.01717 4.79202,-3.78465 7.349,-5.45855 2.41063,-1.55094 4.87443,-3.01314 7.35573,-4.44718 2.94231,-1.60655 6.12192,-2.70739 9.32096,-3.67834 1.41605,-2.77492 2.77262,-5.57926 4.20846,-8.34409 4.32023,-8.31894 10.17303,-11.89686 15.20994,-11.95916 0.52192,-0.82517 1.04029,-1.6527 1.5559,-2.48194 3.3043,-5.2085 6.04491,-10.7508 8.48596,-16.40825 1.54002,-3.86207 2.89994,-7.79381 4.12699,-11.76551 0.83852,-2.5441 1.65068,-5.08551 2.15983,-7.71713 0.29744,-1.99457 0.407,-4.00983 0.4985,-6.02224 0.0818,-2.00317 0.10784,-4.00809 0.12654,-6.01266 0.0172,-2.51035 0.019,-5.02075 0.022,-7.53115 0.002,-2.52715 0.003,-5.05385 0.004,-7.581 3.1e-4,-2.23389 -6e-5,-4.46802 0,-6.70192 5e-5,-2.09745 0,-4.19513 0,-6.29258 -0.0102,-1.74701 -0.29894,-3.48246 -0.46591,-5.22177 -0.2453,-2.20046 -0.61989,-4.38242 -0.90784,-6.57729 -0.14509,-1.38497 -0.57656,-2.68842 -0.96056,-4.02346 -0.726,-2.23786 -1.22499,-4.52946 -1.63546,-6.84284 -0.39864,-2.13731 -0.57807,-4.32701 -1.12162,-6.43542 -0.30264,0.0418 -0.0887,0.0403 -0.38921,-0.56944 -0.86835,-1.76204 -1.73318,-3.31473 -2.73311,-5.00511 -1.62682,-2.70634 -3.34945,-5.35365 -5.07318,-7.99897 -1.80057,-2.58743 -3.44092,-5.26734 -4.84118,-8.09005 -1.26221,-2.86972 -2.26627,-5.84222 -3.26229,-8.81191 -0.91222,-2.45306 -1.49702,-5.00241 -2.17134,-7.52444 -0.0507,-0.0739 -0.0956,-0.13981 -0.13517,-0.19844 -0.0116,-0.003 -0.0319,-0.0156 -0.0623,-0.0403 -2.10255,-2.43312 -3.72822,-5.26509 -4.86515,-8.27314 -0.39291,-1.03956 -0.72807,-2.09985 -1.08327,-3.153 -1.41261,0.24651 -3.07926,0.50443 -5.05784,0.80622 -1.64042,0.25021 -3.15552,-1.0536 -4.6552,-1.76391 -1.11266,-0.527 -2.11681,-1.25793 -3.14725,-1.93168 -0.95816,-0.62648 -1.70477,-1.15733 -2.41676,-1.69394 -2.34295,-0.86946 -4.8161,-2.196213 -7.3586,-4.055089 -1.61496,-1.180738 -3.2562,-2.324982 -4.91403,-3.445387 -0.51989,-0.03377 -1.03973,-0.07454 -1.55973,-0.09586 -5.33141,-1.980592 -7.77872,-1.866067 -10.85671,-7.456381 -0.1065,-0.193426 -0.2066,-0.390086 -0.30006,-0.589569 -5.77896,-3.453181 -11.74219,-6.585076 -17.71776,-9.683324 -1.67744,-0.877691 -3.36134,-1.74153 -5.05209,-2.59219 -2.66037,-0.159274 -5.32025,-0.334662 -7.97788,-0.549306 -5.36175,-0.432754 -10.6747,-1.286256 -15.88675,-2.608485 -2.83627,-0.664837 -5.41242,-1.997442 -7.95392,-3.369652 -0.52407,-0.267183 -1.16622,-0.307028 -1.78692,-0.416056 -1.04207,-0.158277 -2.09405,-0.221751 -3.14629,-0.255962 -3.07992,-0.07244 -6.16079,-0.07137 -9.24138,-0.07957 z m 114.96033,50.654102 c -0.10598,0.054 0.048,0.38291 0.16968,0.62312 -0.056,-0.20813 -0.11207,-0.41546 -0.16968,-0.62312 z M 56.728107,260.56775 v 132.09429 h 48.056163 c -0.48387,-0.55707 -0.93803,-1.14612 -1.35937,-1.76775 -1.69756,-2.50449 -1.82337,-3.53195 -2.75803,-6.35297 -1.119241,-5.09225 -0.57578,-10.30981 -0.23391,-15.45536 0.35751,-2.8562 -0.0306,-5.6798 -0.622168,-8.47158 -0.63903,-2.90206 -1.357107,-5.78493 -1.941267,-8.69879 -0.972096,-4.49448 -0.675194,-9.06416 0.978786,-13.3655 0.338917,-0.8814 0.791196,-1.71556 1.186809,-2.57302 1.85068,-3.06012 3.82997,-6.40981 6.54949,-8.80616 0.10533,-0.0928 0.21167,-0.18405 0.31923,-0.27417 -2.50856,-1.95267 -4.92598,-4.01882 -7.266561,-6.17179 -6.011616,-5.52974 -8.272241,-11.22435 -7.946252,-15.81389 -1.680549,-0.95636 -3.323299,-1.97273 -4.907326,-3.08685 -2.509028,-1.74459 -4.956428,-3.58351 -7.263691,-5.58989 -2.29378,-2.01358 -4.587874,-4.02888 -6.792034,-6.14111 -2.816562,-2.68653 -5.42436,-5.58148 -7.452543,-8.92311 -1.658481,-2.8191 -3.090169,-5.75137 -4.305299,-8.78986 -1.149065,-2.9012 -2.067764,-5.87893 -3.123281,-8.81479 -0.353024,-1.00745 -0.725892,-2.00693 -1.118746,-2.9977 z m 279.206783,5.86694 c -1.45962,2.76571 -3.01477,5.48101 -4.69259,8.12456 -3.10198,4.97984 -6.29739,9.90115 -9.65073,14.71623 -2.25771,3.24187 -4.67461,5.61471 -7.08826,7.23206 -0.0335,0.75073 -0.4496,1.64326 -1.34115,2.7101 1.0192,1.18314 0.21918,3.18436 -3.63807,6.59455 -1.76699,1.5622 -3.39585,3.2608 -5.04825,4.9428 -1.0322,1.09723 -2.06591,2.19284 -3.11274,3.27475 -0.0627,0.11043 -0.12515,0.22036 -0.18789,0.33074 -3.03192,5.29706 -5.96551,10.70107 -9.33054,15.79759 -0.001,10e-4 -0.003,0.004 -0.005,0.006 l -9.8e-4,9.8e-4 v 9.9e-4 h -9.8e-4 -9.8e-4 v -9.9e-4 -9.8e-4 c 0.002,-0.0182 0.0423,-0.11547 0.0546,-0.15434 1.27344,-3.97859 1.13508,-6.35636 0.0786,-7.65386 -0.72637,0.55368 -1.45767,1.10144 -2.19052,1.64696 0.0148,1.71038 -0.0505,3.42507 -0.12941,5.12686 -0.53907,6.28997 -1.51229,12.5383 -2.44648,18.77995 -0.97898,6.40649 -1.74011,12.84135 -2.73694,19.24489 -0.58342,3.76021 -1.31448,7.49574 -1.97003,11.24401 -0.44798,1.94662 -0.49548,3.97298 -0.93468,5.91966 -0.17325,0.76803 -0.3967,1.52355 -0.59532,2.28542 -0.86554,2.42723 -1.9901,4.40627 -3.46648,6.05867 h 58.43469 z m -95.24953,72.72606 c -0.41019,0.10733 -0.82048,0.2138 -1.23091,0.32019 -2.52345,0.72388 -5.02688,1.51467 -7.52732,2.31418 -3.69649,1.11514 -7.46249,2.05477 -11.29385,2.5663 -1.3303,0.16122 -2.69641,0.34111 -4.03113,0.43331 -2.82918,0.19538 -5.66516,0.045 -8.49747,0.07 -4.57293,-0.0295 -9.1464,-0.053 -13.71828,-0.15818 -0.81372,0.0146 -1.62765,0.0241 -2.44168,0.0278 -5.32936,-0.005 -10.6568,-0.18528 -15.97782,-0.48412 -5.26632,-0.32842 -10.52734,-0.72601 -15.80238,-0.89058 -5.88038,-0.35047 -11.75894,-0.84576 -17.55576,-1.93648 -0.38943,-0.0724 -0.7792,-0.14466 -1.16859,-0.21761 0.0578,0.15395 0.11601,0.30783 0.17543,0.46111 1.05761,3.10765 1.52735,6.31339 1.58561,9.53952 4.51893,-0.64969 9.0029,0.52102 13.4441,1.59616 7.26675,1.76643 14.49154,3.708 21.82271,5.19204 4.86287,0.93688 9.76041,1.78547 14.71144,2.07932 2.65992,0.15787 3.27124,0.089 5.87461,0.023 5.71173,-0.27555 11.38167,-1.03333 17.06013,-1.66709 3.88974,-0.44021 7.79349,-0.72519 11.68882,-1.10628 2.35415,-0.19355 4.70611,-0.46953 7.00294,-1.02959 1.03058,-0.21308 2.06495,-0.44122 3.01016,-0.881 4.9e-4,-0.009 0.007,-0.0262 0.0211,-0.0508 0.15123,-0.27109 0.48402,-0.68111 0.76692,-1.03534 -0.40665,-4.23056 -0.23336,-8.43382 1.14461,-12.75292 0.31699,-0.80251 0.5978,-1.61976 0.93661,-2.41292 z m -116.00623,5.80367 c -0.14449,0.13506 -0.50517,0.49482 -0.64134,0.66242 -0.006,0.007 -0.0124,0.0154 -0.0182,0.022 0.73169,-0.72948 0.80404,-0.81954 0.65955,-0.68447 z m -2.02179,0.79376 -9.8e-4,9.8e-4 h -9.8e-4 c -0.065,0.0353 -0.13548,0.52677 -0.092,0.87237 0.0519,-0.0313 0.10406,-0.064 0.15817,-0.0968 0.009,-0.18022 0.0157,-0.36404 0.005,-0.51192 -0.0141,-0.17549 -0.0359,-0.25246 -0.0594,-0.26267 l -9.8e-4,-9.8e-4 h -9.8e-4 l -9.8e-4,-9.8e-4 h -9.8e-4 c -4.1e-4,0 -0.002,-3e-5 -0.003,0 h -9.8e-4 -9.8e-4 z m 115.9765,9.10525 c -0.1423,0.005 -0.52389,0.35454 -0.71131,0.4985 0.25537,-0.12412 0.50401,-0.26513 0.74391,-0.42564 -0.002,-0.0231 -0.005,-0.0459 -0.008,-0.069 -0.007,-0.003 -0.0154,-0.004 -0.0249,-0.004 z m -88.22359,19.88144 c -0.13391,0.008 -0.11999,0.0947 -0.49083,0.45345 0.1882,-0.12222 0.41333,-0.26712 0.69407,-0.44194 -0.0972,-0.008 -0.1586,-0.0141 -0.20324,-0.0115 z m -2.27583,2.12821 c -0.11947,0.11175 -0.23897,0.22287 -0.35854,0.33457 0.63591,0.019 1.2725,0.0327 1.90867,0.0412 -0.51098,-0.12401 -1.02196,-0.24771 -1.53288,-0.37196 -0.006,-9.8e-4 -0.0117,-0.002 -0.0172,-0.004 z" /></clipPath><linearGradient
     inkscape:collect="always"
     xlink:href="#linearGradient55-1"
     id="linearGradient51"
     x1="194.34438"
     y1="56.880356"
     x2="194.34438"
     y2="331.74438"
     gradientUnits="userSpaceOnUse" /><linearGradient
     inkscape:collect="always"
     xlink:href="#linearGradient55-1"
     id="linearGradient54"
     x1="196.33156"
     y1="56.727547"
     x2="196.33156"
     y2="335.93445"
     gradientUnits="userSpaceOnUse" /><linearGradient
     inkscape:collect="always"
     xlink:href="#linearGradient45"
     id="linearGradient8"
     x1="106.5115"
     y1="389.00998"
     x2="106.5115"
     y2="215.371"
     gradientUnits="userSpaceOnUse" /><linearGradient
     inkscape:collect="always"
     xlink:href="#linearGradient47"
     id="linearGradient10"
     x1="106.5115"
     y1="165.246"
     x2="106.5115"
     y2="338.88501"
     gradientUnits="userSpaceOnUse" /><linearGradient
     inkscape:collect="always"
     xlink:href="#linearGradient47"
     id="linearGradient20"
     x1="397.58801"
     y1="165.21051"
     x2="397.58801"
     y2="338.89648"
     gradientUnits="userSpaceOnUse" /><linearGradient
     inkscape:collect="always"
     xlink:href="#linearGradient45"
     id="linearGradient22"
     x1="397.58801"
     y1="389.03351"
     x2="397.58801"
     y2="215.34747"
     gradientUnits="userSpaceOnUse" /><linearGradient
     inkscape:collect="always"
     xlink:href="#linearGradient55"
     id="linearGradient24"
     x1="50.813999"
     y1="100.273"
     x2="224.492"
     y2="100.273"
     gradientUnits="userSpaceOnUse" /><linearGradient
     inkscape:collect="always"
     xlink:href="#linearGradient55"
     id="linearGradient26"
     x1="453.285"
     y1="100.26151"
     x2="279.63101"
     y2="100.26151"
     gradientUnits="userSpaceOnUse" /><linearGradient
     inkscape:collect="always"
     xlink:href="#linearGradient47"
     id="linearGradient27"
     x1="17.221001"
     y1="362.65536"
     x2="300.16776"
     y2="362.65536"
     gradientUnits="userSpaceOnUse" /><linearGradient
     inkscape:collect="always"
     xlink:href="#linearGradient47"
     id="linearGradient28"
     x1="203.95825"
     y1="141.47214"
     x2="486.90601"
     y2="141.47214"
     gradientUnits="userSpaceOnUse" /><linearGradient
     inkscape:collect="always"
     xlink:href="#linearGradient45"
     id="linearGradient30"
     x1="333.306"
     y1="162.42825"
     x2="485.48849"
     y2="162.42825"
     gradientUnits="userSpaceOnUse" /><linearGradient
     inkscape:collect="always"
     xlink:href="#linearGradient45"
     id="linearGradient31"
     x1="18.636499"
     y1="341.69125"
     x2="170.821"
     y2="341.69125"
     gradientUnits="userSpaceOnUse" /><linearGradient
     inkscape:collect="always"
     xlink:href="#linearGradient35"
     id="linearGradient33"
     x1="201.11618"
     y1="316.69385"
     x2="201.11618"
     y2="85.601952"
     gradientUnits="userSpaceOnUse" /><linearGradient
     inkscape:collect="always"
     xlink:href="#SVGID_5_"
     id="linearGradient37"
     x1="231.6356"
     y1="208.01488"
     x2="198.61736"
     y2="289.79849"
     gradientUnits="userSpaceOnUse"
     gradientTransform="translate(-249.96582,74.651076)" /></defs><sodipodi:namedview
   id="namedview6"
   pagecolor="#ffffff"
   bordercolor="#000000"
   borderopacity="0.25"
   inkscape:showpageshadow="2"
   inkscape:pageopacity="0.0"
   inkscape:pagecheckerboard="0"
   inkscape:deskcolor="#d1d1d1"
   inkscape:zoom="0.96624999"
   inkscape:cx="539.19794"
   inkscape:cy="542.82019"
   inkscape:window-width="1920"
   inkscape:window-height="991"
   inkscape:window-x="-9"
   inkscape:window-y="-9"
   inkscape:window-maximized="1"
   inkscape:current-layer="Layer_1"
   showguides="false" />

<path
   style="display:inline;fill:url(#linearGradient30)"
   d="m 429.31,142.507 c 26.002,26.002 30.625,65.284 13.887,96.02 6.656,-3.639 12.942,-8.247 18.566,-13.887 31.642,-31.642 31.626,-82.928 0,-114.578 -31.657,-31.642 -82.936,-31.642 -114.578,-0.008 -5.632,5.64 -10.256,11.91 -13.879,18.566 30.744,-16.722 70.002,-12.114 96.004,13.887 z"
   id="path7"
   transform="matrix(0.68795828,0,0,0.79836702,27.830611,5.9965529e-4)" /><g
   id="g40"
   style="display:none"><path
     style="fill:url(#linearGradient28);fill-opacity:1"
     d="M 308.399,104.438 C 356.74,56.089 429.759,47.511 486.906,78.641 480.163,66.258 471.585,54.601 461.101,44.124 c -58.825,-58.833 -154.199,-58.833 -213.024,0 -58.833,58.825 -58.817,154.199 0,213.024 10.476,10.476 22.126,19.062 34.517,25.797 -31.113,-57.131 -22.543,-130.166 25.805,-178.507 z"
     id="path3-1"
     transform="matrix(0.68795828,0,0,0.79836702,27.830611,5.9965529e-4)" /><path
     style="fill:url(#linearGradient27);fill-opacity:1"
     d="M 195.728,399.681 C 147.379,448.03 74.36,456.608 17.221,425.486 c 6.743,12.383 15.328,24.04 25.797,34.517 58.833,58.833 154.207,58.833 213.031,0 58.825,-58.825 58.825,-154.191 0,-213.023 -10.476,-10.468 -22.134,-19.054 -34.517,-25.797 31.114,57.122 22.544,130.157 -25.804,178.498 z"
     id="path10"
     transform="matrix(0.68795828,0,0,0.79836702,27.830611,5.9965529e-4)" /></g><g
   id="g28"
   transform="matrix(0.86603357,0,0,0.79837574,-17.053933,0)"
   style="display:none"><polygon
     style="fill:url(#linearGradient24)"
     points="50.814,100.281 224.492,200.546 224.492,0 "
     id="polygon4" /><polygon
     style="display:inline;fill:url(#linearGradient10)"
     points="193.331,252.062 19.692,151.812 19.692,352.319 "
     id="polygon7" /><polygon
     style="fill:url(#linearGradient26)"
     points="279.631,200.523 453.285,100.265 279.631,0 "
     id="polygon11" /><g
     id="g19">
	
		<linearGradient
   id="SVGID_4_"
   gradientUnits="userSpaceOnUse"
   x1="0.30669999"
   y1="552.58502"
   x2="0.30669999"
   y2="575.03497"
   gradientTransform="matrix(7.8769,0,0,-7.8769,364.0537,4969.6694)">
		<stop
   offset="0"
   style="stop-color:#29D3DA"
   id="stop12" />
		<stop
   offset="0.519"
   style="stop-color:#0077FF"
   id="stop13" />
		<stop
   offset="0.999"
   style="stop-color:#064093"
   id="stop14" />
		<stop
   offset="1"
   style="stop-color:#084698"
   id="stop15" />
	</linearGradient>
	<polygon
   style="fill:url(#SVGID_4_)"
   points="279.631,504.123 453.309,403.842 279.631,303.561 "
   id="polygon15" />
	
		<linearGradient
   id="SVGID_5_"
   gradientUnits="userSpaceOnUse"
   x1="-28.743799"
   y1="552.58502"
   x2="-28.743799"
   y2="575.03497"
   gradientTransform="matrix(7.8769,0,0,-7.8769,364.0537,4969.6694)">
		<stop
   offset="0"
   style="stop-color:#29D3DA"
   id="stop16" />
		<stop
   offset="0.519"
   style="stop-color:#0077FF"
   id="stop17" />
		<stop
   offset="0.999"
   style="stop-color:#064093"
   id="stop18" />
		<stop
   offset="1"
   style="stop-color:#084698"
   id="stop19" />
	</linearGradient>
	<polygon
   style="fill:url(#SVGID_5_)"
   points="50.79,403.826 224.492,504.123 224.492,303.561 "
   id="polygon19" />
</g><polygon
     style="display:inline;fill:url(#linearGradient20)"
     points="310.745,252.054 484.431,352.327 484.431,151.78 "
     id="polygon22" /><polygon
     style="fill:url(#linearGradient8)"
     points="19.692,265.224 19.692,352.319 193.331,252.062 "
     id="polygon25" /><polygon
     style="fill:url(#linearGradient22)"
     points="484.431,352.327 484.431,265.185 310.745,252.054 "
     id="polygon28" /></g><path
   style="display:inline;fill:url(#linearGradient33);fill-opacity:1;fill-rule:evenodd;stroke-width:25.3986"
   d="m 190.12136,85.695245 c -36.52264,3.346075 -70.41193,25.674965 -88.8893,57.223105 -8.729741,14.78945 -14.40706,31.51184 -15.661823,48.68229 1.661994,2.34839 5.893437,0.60064 8.570819,1.25916 5.140017,0.0803 11.591664,-0.36803 14.815774,4.53192 2.61936,4.12549 2.24714,10.24995 -1.76501,13.40771 -3.71076,3.28677 -9.205595,1.87885 -13.725304,2.44664 -2.252838,0.74676 -7.252589,-1.37661 -7.499585,1.81834 4.217281,36.00902 26.456339,69.34363 58.113779,87.03678 14.38968,8.06945 30.5015,13.5387 47.01464,14.63128 3.08531,-0.43666 1.06139,-5.16768 1.80597,-7.41112 0.0369,-4.6366 0.64315,-10.68122 5.73156,-12.66062 6.09127,-3.30341 15.27422,1.64336 14.37603,8.955 0.31262,3.58822 -0.24952,7.37761 0.61016,10.82816 7.2452,-0.20734 14.50705,-2.32914 21.51642,-4.32249 34.22959,-10.28252 62.83447,-37.31969 74.9608,-70.95166 3.14065,-8.81155 5.72253,-18.05753 6.43051,-27.35046 -2.44703,-1.41512 -6.11031,-0.26629 -9.05761,-0.65519 -4.01419,0.16351 -8.69938,-0.82653 -10.48007,-4.8956 -3.63974,-5.88234 0.65035,-14.78427 7.73865,-14.98817 3.95306,-0.67691 8.10361,-0.0248 11.93438,-0.99214 -0.0707,-11.14652 -3.3781,-22.18996 -7.19395,-32.6432 -12.43477,-33.01598 -40.83145,-59.37677 -74.62892,-69.453045 -6.94155,-1.945051 -14.15254,-4.049739 -21.31545,-4.203018 -1.1954,6.351037 0.84122,13.305944 -1.49415,19.497423 -3.31909,6.37823 -13.35726,6.86911 -17.2562,0.81058 -2.7353,-4.41104 -1.12592,-10.025987 -1.51319,-14.921428 -0.16432,-2.151152 1.18793,-6.604171 -2.53075,-5.690169 l -0.5079,0.0083 z m 13.12495,29.649935 c 15.74115,-0.74759 31.36171,4.21283 44.94667,12.1467 24.54252,14.29621 41.09599,41.09483 42.93453,69.43824 1.9446,26.43641 -8.57366,53.5445 -28.44991,71.30381 -13.74861,12.54057 -31.549,20.80402 -50.03677,22.56626 -10.98259,0.82673 -22.24134,0.72126 -32.88231,-2.57776 -28.09944,-7.70811 -51.859,-30.07402 -60.47853,-58.06646 -8.83584,-26.51243 -3.7879,-56.96228 13.05696,-79.28433 14.58236,-19.75618 37.73701,-33.06691 62.06448,-35.37367 2.94558,-0.15465 5.89628,-0.14216 8.84488,-0.15279 z"
   id="path5" /><path
   style="display:inline;fill:#ffc652;fill-opacity:1"
   d="m 203.19441,292.21241 c -49.067,0 -89.018,-39.951 -89.018,-89.018 0,-49.067 39.952,-89.018 89.018,-89.018 49.066,0 89.018,39.951 89.018,89.018 0,49.067 -39.951,89.018 -89.018,89.018 z"
   id="path2" />
<g
   id="g4"
   style="display:inline"
   transform="translate(6.8954129,6.927412)">
	<path
   style="display:inline;fill:#4c9900;fill-opacity:1"
   d="m 189.059,162.586 h 36.784 c 6.012,0 10.925,-4.848 10.925,-10.925 0,-6.012 -4.848,-10.925 -10.925,-10.925 h -13.059 v -6.012 c 0,-6.012 -4.848,-10.925 -10.925,-10.925 -6.012,0 -10.925,4.848 -10.925,10.925 v 6.012 h -1.939 c -18.295,0 -33.228,14.933 -33.228,33.228 0,18.295 14.933,33.228 33.228,33.228 h 14.545 c 6.271,0 11.442,5.107 11.442,11.442 0,6.271 -5.107,11.442 -11.442,11.442 h -36.848 c -6.012,0 -10.925,4.848 -10.925,10.925 0,6.012 4.848,10.925 10.925,10.925 h 24.242 v 6.077 c 0,6.012 4.848,10.925 10.925,10.925 6.077,0 10.925,-4.848 10.925,-10.925 v -7.434 c 13.834,-4.008 23.984,-16.743 23.984,-31.935 0,-18.295 -14.933,-33.228 -33.228,-33.228 h -14.545 c -6.271,0 -11.442,-5.107 -11.442,-11.442 0.063,-6.271 5.235,-11.378 11.506,-11.378 z"
   id="path3" />
	<g
   id="g48"
   style="display:inline"><path
     style="display:inline;fill:url(#linearGradient54);stroke:none"
     d="M 278.659,83.717 V 10.925 C 278.659,4.913 273.81,0 267.733,0 H 124.8 c -6.012,0 -10.925,4.848 -10.925,10.925 v 72.792 c -34.586,25.471 -57.147,66.392 -57.147,112.614 0,46.222 22.562,87.143 57.212,112.614 v 72.792 c 0,6.012 4.848,10.925 10.925,10.925 h 142.933 c 6.012,0 10.925,-4.848 10.925,-10.925 v -72.792 c 34.586,-25.406 57.212,-66.392 57.212,-112.614 0,-46.222 -22.626,-87.143 -57.276,-112.614 z M 135.725,21.851 H 256.872 V 70.53 h -0.065 c -18.295,-8.792 -38.853,-13.77 -60.509,-13.77 -21.721,0 -42.214,4.913 -60.509,13.834 0,0 0,0 -0.065,0 z M 256.873,370.812 H 135.725 v -48.679 h 0.065 c 18.295,8.792 38.853,13.834 60.509,13.834 21.656,0 42.214,-4.913 60.509,-13.77 0.065,0 0.065,0 0.065,0 z m -49.649,-57.277 v -14.739 c 0,-6.012 -4.848,-10.925 -10.925,-10.925 -6.077,0 -10.925,4.848 -10.925,10.925 v 14.739 C 129.132,308.363 84.202,263.434 79.031,207.192 H 93.77 c 6.012,0 10.925,-4.848 10.925,-10.925 0,-6.077 -4.848,-10.925 -10.925,-10.925 H 79.03 C 84.202,129.1 129.131,84.17 185.373,78.999 v 14.739 c 0,6.012 4.848,10.925 10.925,10.925 6.077,0 10.925,-4.848 10.925,-10.925 v -14.74 c 56.242,5.172 101.172,50.101 106.343,106.343 h -14.739 c -6.012,0 -10.925,4.848 -10.925,10.925 0,6.012 4.848,10.925 10.925,10.925 h 14.739 c -5.235,56.308 -50.099,101.173 -106.342,106.344 z"
     id="path4"
     clip-path="url(#clipPath43)" /><path
     style="display:inline;fill:none;fill-opacity:1;stroke:url(#linearGradient51);stroke-width:22.1029;stroke-dasharray:none;stroke-opacity:1"
     d="m 194.34438,320.69296 c -69.66137,0 -126.380575,-56.7192 -126.380575,-126.38058 0,-69.66137 56.720635,-126.380575 126.380575,-126.380575 69.65995,0 126.38058,56.719205 126.38058,126.380575 0,69.66138 -56.7192,126.38058 -126.38058,126.38058 z"
     id="path6" /></g>
</g>

<g
   id="g14"
   transform="matrix(0.68795829,0,0,0.79836702,27.830611,5.9965423e-4)"
   inkscape:groupmode="layer"
   style="display:inline"><path
     style="fill:url(#linearGradient31)"
     d="m 74.809,361.62 c -26.01,-26.01 -30.61,-65.284 -13.871,-96.02 -6.664,3.631 -12.95,8.247 -18.574,13.879 -31.642,31.634 -31.634,82.936 0.008,114.578 31.642,31.634 82.928,31.634 114.57,0 5.64,-5.64 10.256,-11.91 13.879,-18.566 -30.744,16.738 -70.01,12.123 -96.012,-13.871 z"
     id="path14" /></g><circle
   style="display:none;fill:#0b91f5;fill-opacity:1;fill-rule:evenodd;stroke-width:24.5414"
   id="path37"
   cx="201.23979"
   cy="201.23979"
   r="16.163595" /><rect
   style="display:none;fill:url(#linearGradient37);fill-rule:evenodd;stroke-width:24.5414"
   id="rect35"
   width="25.906614"
   height="91.943085"
   x="-46.77668"
   y="273.77643"
   ry="12.953307"
   transform="rotate(-51.831103)" /></svg>
